<svg width="248" height="124" viewBox="0 0 248 124" fill="none" xmlns="http://www.w3.org/2000/svg">
<rect width="248" height="124" fill="#F8F8F8"/>
<path d="M114.998 60C116.655 60 117.998 58.6569 117.998 57C117.998 55.3431 116.655 54 114.998 54C113.341 54 111.998 55.3431 111.998 57C111.998 58.6569 113.341 60 114.998 60Z" fill="#D6DAE1"/>
<path d="M120.998 66L117.998 62L111.998 70H135.998L126.998 58L120.998 66Z" fill="#D6DAE1"/>
<path d="M139.998 46H107.998C105.792 46 103.998 47.794 103.998 50V74C103.998 76.206 105.792 78 107.998 78H139.998C142.204 78 143.998 76.206 143.998 74V50C143.998 47.794 142.204 46 139.998 46ZM107.998 74V50H139.998L140.002 74H107.998Z" fill="#D6DAE1"/>
</svg>
