<svg width="40" height="40" viewBox="0 0 40 40" fill="none" xmlns="http://www.w3.org/2000/svg">
<rect width="40" height="40" fill="#F8F8F8"/>
<path d="M15.499 19C16.3275 19 16.999 18.3284 16.999 17.5C16.999 16.6716 16.3275 16 15.499 16C14.6706 16 13.999 16.6716 13.999 17.5C13.999 18.3284 14.6706 19 15.499 19Z" fill="#D6DAE1"/>
<path d="M18.499 22L16.999 20L13.999 24H25.999L21.499 18L18.499 22Z" fill="#D6DAE1"/>
<path d="M27.999 12H11.999C10.896 12 9.99902 12.897 9.99902 14V26C9.99902 27.103 10.896 28 11.999 28H27.999C29.102 28 29.999 27.103 29.999 26V14C29.999 12.897 29.102 12 27.999 12ZM11.999 26V14H27.999L28.001 26H11.999Z" fill="#D6DAE1"/>
</svg>
