<?xml version="1.0" encoding="utf-8"?>
<!-- Generator: Adobe Illustrator 16.0.0, SVG Export Plug-In . SVG Version: 6.00 Build 0)  -->
<!DOCTYPE svg PUBLIC "-//W3C//DTD SVG 1.1//EN" "http://www.w3.org/Graphics/SVG/1.1/DTD/svg11.dtd">
<svg version="1.1" id="Isolation_Mode" xmlns="http://www.w3.org/2000/svg" xmlns:xlink="http://www.w3.org/1999/xlink" x="0px"
	 y="0px" width="45.438px" height="42.75px" viewBox="0 0 45.438 42.75" enable-background="new 0 0 45.438 42.75"
	 xml:space="preserve">
<g>
	<path fill="#381E1E" d="M22.811,0.282C10.383,0.282,0.31,8.424,0.31,18.466c0,6.536,4.269,12.265,10.675,15.471
		c-0.471,1.795-1.704,6.505-1.952,7.513c-0.304,1.251,0.449,1.234,0.944,0.898c0.386-0.264,6.165-4.279,8.658-6.013
		c1.353,0.206,2.749,0.313,4.177,0.313c12.426,0,22.499-8.14,22.499-18.182S35.236,0.282,22.811,0.282"/>
	<g>
		<g>
			<g>
				<defs>
					<path id="SVGID_9_" d="M7.027,12.673c-1.376,0-1.372,2.464,0.001,2.464h2.346c0,0,0.014,6.668,0.001,8.202
						c0.003,1.118,2.44,1.176,2.437,0.059l0.01-8.025c0,0,0.788-0.177,2.334-0.175c1.457,0.001,1.459-2.524,0.002-2.524H7.027z"/>
				</defs>
				<clipPath id="SVGID_2_">
					<use xlink:href="#SVGID_9_"  overflow="visible"/>
				</clipPath>
			</g>
			<g>
				<defs>
					<path id="SVGID_11_" d="M7.027,12.673c-1.376,0-1.372,2.464,0.001,2.464h2.346c0,0,0.014,6.668,0.001,8.202
						c0.003,1.118,2.44,1.176,2.437,0.059l0.01-8.025c0,0,0.788-0.177,2.334-0.175c1.457,0.001,1.459-2.524,0.002-2.524H7.027z"/>
				</defs>
				<use xlink:href="#SVGID_11_"  overflow="visible" fill="#EED823"/>
				<clipPath id="SVGID_4_">
					<use xlink:href="#SVGID_11_"  overflow="visible"/>
				</clipPath>
				<rect x="5.651" y="12.673" clip-path="url(#SVGID_4_)" fill="#FFE600" width="9.965" height="11.842"/>
			</g>
			<g>
				<defs>
					<path id="SVGID_13_" d="M7.027,12.673c-1.376,0-1.372,2.464,0.001,2.464h2.346c0,0,0.014,6.668,0.001,8.202
						c0.003,1.118,2.44,1.176,2.437,0.059l0.01-8.025c0,0,0.788-0.177,2.334-0.175c1.457,0.001,1.459-2.524,0.002-2.524H7.027z"/>
				</defs>
				<clipPath id="SVGID_6_">
					<use xlink:href="#SVGID_13_"  overflow="visible"/>
				</clipPath>
			</g>
		</g>
		<g>
			<g>
				<defs>
					<path id="SVGID_15_" d="M18.544,15.745l1.306,4.177H17.13L18.544,15.745z M17.084,13.786c-0.578,1.3-2.662,7.433-3.354,9.061
						c-0.499,1.176,1.658,2.134,2.159,0.958l0.467-1.679l4.292,0.002c0,0-0.147,0.068,0.422,1.604
						c0.462,1.244,2.688,0.382,2.227-0.863c-0.658-1.776-2.938-8.177-3.353-9.084c-0.193-0.419-0.88-0.72-1.545-0.72
						C17.849,13.066,17.311,13.272,17.084,13.786"/>
				</defs>
				<clipPath id="SVGID_8_">
					<use xlink:href="#SVGID_15_"  overflow="visible"/>
				</clipPath>
			</g>
			<g>
				<defs>
					<path id="SVGID_17_" d="M18.544,15.745l1.306,4.177H17.13L18.544,15.745z M17.084,13.786c-0.578,1.3-2.662,7.433-3.354,9.061
						c-0.499,1.176,1.658,2.134,2.159,0.958l0.467-1.679l4.292,0.002c0,0-0.147,0.068,0.422,1.604
						c0.462,1.244,2.688,0.382,2.227-0.863c-0.658-1.776-2.938-8.177-3.353-9.084c-0.193-0.419-0.88-0.72-1.545-0.72
						C17.849,13.066,17.311,13.272,17.084,13.786"/>
				</defs>
				<use xlink:href="#SVGID_17_"  overflow="visible" fill="#FFE600"/>
				<clipPath id="SVGID_10_">
					<use xlink:href="#SVGID_17_"  overflow="visible"/>
				</clipPath>
				<rect x="13.231" y="13.066" clip-path="url(#SVGID_10_)" fill="#EED823" width="10.528" height="11.915"/>
			</g>
			<g>
				<defs>
					<path id="SVGID_19_" d="M18.544,15.745l1.306,4.177H17.13L18.544,15.745z M17.084,13.786c-0.578,1.3-2.662,7.433-3.354,9.061
						c-0.499,1.176,1.658,2.134,2.159,0.958l0.467-1.679l4.292,0.002c0,0-0.147,0.068,0.422,1.604
						c0.462,1.244,2.688,0.382,2.227-0.863c-0.658-1.776-2.938-8.177-3.353-9.084c-0.193-0.419-0.88-0.72-1.545-0.72
						C17.849,13.066,17.311,13.272,17.084,13.786"/>
				</defs>
				<clipPath id="SVGID_12_">
					<use xlink:href="#SVGID_19_"  overflow="visible"/>
				</clipPath>
			</g>
		</g>
		<g>
			<g>
				<defs>
					<path id="SVGID_21_" d="M24.214,14.158c0.005,2.086,0.012,8.804,0.012,8.804s-0.187,1.335,0.932,1.335
						c1.118,0,3.604-0.011,4.707-0.011c1.104,0,1.096-2.397-0.006-2.397s-3.112-0.011-3.112-0.011s0.009-6.215,0.005-7.725
						c-0.001-0.73-0.634-1.094-1.269-1.094C24.848,13.059,24.212,13.425,24.214,14.158"/>
				</defs>
				<clipPath id="SVGID_14_">
					<use xlink:href="#SVGID_21_"  overflow="visible"/>
				</clipPath>
			</g>
			<g>
				<defs>
					<path id="SVGID_23_" d="M24.214,14.158c0.005,2.086,0.012,8.804,0.012,8.804s-0.187,1.335,0.932,1.335
						c1.118,0,3.604-0.011,4.707-0.011c1.104,0,1.096-2.397-0.006-2.397s-3.112-0.011-3.112-0.011s0.009-6.215,0.005-7.725
						c-0.001-0.73-0.634-1.094-1.269-1.094C24.848,13.059,24.212,13.425,24.214,14.158"/>
				</defs>
				<use xlink:href="#SVGID_23_"  overflow="visible" fill="#EED823"/>
				<clipPath id="SVGID_16_">
					<use xlink:href="#SVGID_23_"  overflow="visible"/>
				</clipPath>
				<rect x="24.04" y="13.059" clip-path="url(#SVGID_16_)" fill="#FFE600" width="6.928" height="11.238"/>
			</g>
			<g>
				<defs>
					<path id="SVGID_25_" d="M24.214,14.158c0.005,2.086,0.012,8.804,0.012,8.804s-0.187,1.335,0.932,1.335
						c1.118,0,3.604-0.011,4.707-0.011c1.104,0,1.096-2.397-0.006-2.397s-3.112-0.011-3.112-0.011s0.009-6.215,0.005-7.725
						c-0.001-0.73-0.634-1.094-1.269-1.094C24.848,13.059,24.212,13.425,24.214,14.158"/>
				</defs>
				<clipPath id="SVGID_18_">
					<use xlink:href="#SVGID_25_"  overflow="visible"/>
				</clipPath>
			</g>
		</g>
		<g>
			<g>
				<defs>
					<path id="SVGID_27_" d="M31.359,13.828c0.023,0.914-0.029,9.179-0.029,9.794c0.001,0.964,2.408,0.961,2.408-0.003
						c-0.001-1.121,0-3.251,0-3.251l0.707-0.58l3.094,4.311c0.623,0.843,2.588-0.679,1.963-1.522l-3.281-4.418
						c0,0,2.227-2.464,3.105-3.356c0.512-0.521-1.074-2.154-1.587-1.632c-0.497,0.504-3.986,4.074-3.986,4.074
						s0.032-2.242-0.002-3.481c-0.011-0.471-0.576-0.698-1.154-0.698C31.979,13.063,31.345,13.325,31.359,13.828"/>
				</defs>
				<clipPath id="SVGID_20_">
					<use xlink:href="#SVGID_27_"  overflow="visible"/>
				</clipPath>
			</g>
			<g>
				<defs>
					<path id="SVGID_29_" d="M31.359,13.828c0.023,0.914-0.029,9.179-0.029,9.794c0.001,0.964,2.408,0.961,2.408-0.003
						c-0.001-1.121,0-3.251,0-3.251l0.707-0.58l3.094,4.311c0.623,0.843,2.588-0.679,1.963-1.522l-3.281-4.418
						c0,0,2.227-2.464,3.105-3.356c0.512-0.521-1.074-2.154-1.587-1.632c-0.497,0.504-3.986,4.074-3.986,4.074
						s0.032-2.242-0.002-3.481c-0.011-0.471-0.576-0.698-1.154-0.698C31.979,13.063,31.345,13.325,31.359,13.828"/>
				</defs>
				<use xlink:href="#SVGID_29_"  overflow="visible" fill="#EED823"/>
				<clipPath id="SVGID_22_">
					<use xlink:href="#SVGID_29_"  overflow="visible"/>
				</clipPath>
				<rect x="31.33" y="12.647" clip-path="url(#SVGID_22_)" fill="#FFE600" width="8.796" height="12.294"/>
			</g>
			<g>
				<defs>
					<path id="SVGID_31_" d="M31.359,13.828c0.023,0.914-0.029,9.179-0.029,9.794c0.001,0.964,2.408,0.961,2.408-0.003
						c-0.001-1.121,0-3.251,0-3.251l0.707-0.58l3.094,4.311c0.623,0.843,2.588-0.679,1.963-1.522l-3.281-4.418
						c0,0,2.227-2.464,3.105-3.356c0.512-0.521-1.074-2.154-1.587-1.632c-0.497,0.504-3.986,4.074-3.986,4.074
						s0.032-2.242-0.002-3.481c-0.011-0.471-0.576-0.698-1.154-0.698C31.979,13.063,31.345,13.325,31.359,13.828"/>
				</defs>
				<clipPath id="SVGID_24_">
					<use xlink:href="#SVGID_31_"  overflow="visible"/>
				</clipPath>
			</g>
		</g>
	</g>
</g>
</svg>
