<?xml version="1.0" encoding="utf-8"?>
<!-- Generator: Adobe Illustrator 16.0.0, SVG Export Plug-In . SVG Version: 6.00 Build 0)  -->
<!DOCTYPE svg PUBLIC "-//W3C//DTD SVG 1.1//EN" "http://www.w3.org/Graphics/SVG/1.1/DTD/svg11.dtd">
<svg version="1.1" xmlns="http://www.w3.org/2000/svg" xmlns:xlink="http://www.w3.org/1999/xlink" x="0px" y="0px" width="40px"
	 height="40px" viewBox="0 0 40 40" enable-background="new 0 0 40 40" xml:space="preserve">
<g id="Layer_1" display="none">
	<path display="inline" fill-rule="evenodd" clip-rule="evenodd" fill="#348B6B" d="M37.372,16.368
		c0.918-2.725,0.6-5.707-0.87-8.184c-2.213-3.798-6.659-5.751-11-4.834c-2.447-2.684-6.16-3.877-9.739-3.131
		C12.182,0.965,9.277,3.539,8.14,6.97c-2.852,0.577-5.313,2.338-6.755,4.833c-2.235,3.792-1.729,8.575,1.255,11.826
		c-0.92,2.724-0.606,5.707,0.864,8.186c2.214,3.799,6.663,5.752,11.006,4.834c1.933,2.146,4.708,3.368,7.619,3.352
		c4.449,0.005,8.393-2.831,9.751-7.011c2.851-0.577,5.313-2.338,6.755-4.833C40.844,24.371,40.335,19.614,37.372,16.368
		 M22.129,37.381c-1.776,0.002-3.497-0.611-4.859-1.734l0.238-0.133l8.074-4.599c0.408-0.235,0.661-0.668,0.663-1.134V18.552
		l3.414,1.948c0.033,0.018,0.058,0.049,0.063,0.086v9.305C29.714,34.024,26.318,37.374,22.129,37.381L22.129,37.381z M5.806,30.506
		c-0.89-1.518-1.21-3.297-0.903-5.023l0.24,0.143l8.082,4.596c0.406,0.238,0.911,0.238,1.319,0l9.872-5.611v3.887
		c-0.003,0.041-0.023,0.076-0.057,0.103l-8.177,4.65C12.548,35.313,7.906,34.086,5.806,30.506 M3.68,13.159
		c0.896-1.526,2.313-2.691,3.997-3.288v9.462c-0.006,0.465,0.245,0.897,0.656,1.128l9.823,5.59l-3.412,1.948
		c-0.039,0.02-0.083,0.02-0.121,0l-8.162-4.646c-3.625-2.072-4.87-6.649-2.781-10.233V13.159z M31.721,19.585l-9.856-5.645L25.27,12
		c0.037-0.019,0.083-0.019,0.121,0l8.16,4.652c2.548,1.45,4.018,4.221,3.773,7.11c-0.245,2.893-2.16,5.383-4.916,6.396v-9.462
		C32.394,20.233,32.133,19.811,31.721,19.585z M35.118,14.547l-0.239-0.142l-8.065-4.636c-0.41-0.237-0.918-0.237-1.328,0
		l-9.863,5.614v-3.888c-0.005-0.04,0.013-0.08,0.047-0.102l8.161-4.644c2.554-1.452,5.728-1.316,8.146,0.347
		c2.416,1.663,3.64,4.554,3.142,7.419V14.547L35.118,14.547z M13.76,21.438l-3.414-1.939c-0.034-0.021-0.057-0.056-0.064-0.095
		v-9.281c0.003-2.906,1.71-5.548,4.378-6.781c2.668-1.232,5.817-0.833,8.083,1.025l-0.239,0.135l-8.073,4.597
		c-0.41,0.236-0.661,0.668-0.663,1.135L13.76,21.438z M15.614,17.496l4.396-2.499l4.405,2.499v4.999l-4.389,2.5l-4.403-2.5
		L15.614,17.496z"/>
</g>
<g id="Layer_1_copy" display="none">
	<path display="inline" fill-rule="evenodd" clip-rule="evenodd" fill="#666666" d="M37.372,16.368
		c0.918-2.725,0.6-5.707-0.87-8.184c-2.213-3.798-6.659-5.751-11-4.834c-2.447-2.684-6.16-3.877-9.739-3.131
		C12.182,0.965,9.277,3.539,8.14,6.97c-2.852,0.577-5.313,2.338-6.755,4.833c-2.235,3.792-1.729,8.575,1.255,11.826
		c-0.92,2.724-0.606,5.707,0.864,8.186c2.214,3.799,6.663,5.752,11.006,4.834c1.933,2.146,4.708,3.368,7.619,3.352
		c4.449,0.005,8.393-2.831,9.751-7.011c2.851-0.577,5.313-2.338,6.755-4.833C40.844,24.371,40.335,19.614,37.372,16.368
		 M22.129,37.381c-1.776,0.002-3.497-0.611-4.859-1.734l0.238-0.133l8.074-4.599c0.408-0.235,0.661-0.668,0.663-1.134V18.552
		l3.414,1.948c0.033,0.018,0.058,0.049,0.063,0.086v9.305C29.714,34.024,26.318,37.374,22.129,37.381L22.129,37.381z M5.806,30.506
		c-0.89-1.518-1.21-3.297-0.903-5.023l0.24,0.143l8.082,4.596c0.406,0.238,0.911,0.238,1.319,0l9.872-5.611v3.887
		c-0.003,0.041-0.023,0.076-0.057,0.103l-8.177,4.65C12.548,35.313,7.906,34.086,5.806,30.506 M3.68,13.159
		c0.896-1.526,2.313-2.691,3.997-3.288v9.462c-0.006,0.465,0.245,0.897,0.656,1.128l9.823,5.59l-3.412,1.948
		c-0.039,0.02-0.083,0.02-0.121,0l-8.162-4.646c-3.625-2.072-4.87-6.649-2.781-10.233V13.159z M31.721,19.585l-9.856-5.645L25.27,12
		c0.037-0.019,0.083-0.019,0.121,0l8.16,4.652c2.548,1.45,4.018,4.221,3.773,7.11c-0.245,2.893-2.16,5.383-4.916,6.396v-9.462
		C32.394,20.233,32.133,19.811,31.721,19.585z M35.118,14.547l-0.239-0.142l-8.065-4.636c-0.41-0.237-0.918-0.237-1.328,0
		l-9.863,5.614v-3.888c-0.005-0.04,0.013-0.08,0.047-0.102l8.161-4.644c2.554-1.452,5.728-1.316,8.146,0.347
		c2.416,1.663,3.64,4.554,3.142,7.419V14.547L35.118,14.547z M13.76,21.438l-3.414-1.939c-0.034-0.021-0.057-0.056-0.064-0.095
		v-9.281c0.003-2.906,1.71-5.548,4.378-6.781c2.668-1.232,5.817-0.833,8.083,1.025l-0.239,0.135l-8.073,4.597
		c-0.41,0.236-0.661,0.668-0.663,1.135L13.76,21.438z M15.614,17.496l4.396-2.499l4.405,2.499v4.999l-4.389,2.5l-4.403-2.5
		L15.614,17.496z"/>
</g>
<g id="Layer_3" display="none">
	<g display="inline">
		
			<radialGradient id="SVGID_1_" cx="1158.6426" cy="-1185.7661" r="0.9996" gradientTransform="matrix(4.7899 24.2081 -24.3327 4.7654 -34377.8203 -22380.3594)" gradientUnits="userSpaceOnUse">
			<stop  offset="0" style="stop-color:#1BA1E3"/>
			<stop  offset="0.3002" style="stop-color:#5489D6"/>
			<stop  offset="0.5455" style="stop-color:#9B72CB"/>
			<stop  offset="0.8254" style="stop-color:#D96570"/>
			<stop  offset="1" style="stop-color:#F49C46"/>
		</radialGradient>
		<path fill="url(#SVGID_1_)" d="M19.067,26.871l-1.6,3.66c-0.614,1.404-2.572,1.404-3.193,0l-1.606-3.66
			c-1.424-3.258-3.996-5.846-7.196-7.263l-4.421-1.951c-1.404-0.621-1.404-2.656,0-3.273l4.279-1.895
			c3.288-1.45,5.907-4.14,7.311-7.504l1.62-3.898c0.607-1.447,2.619-1.447,3.214,0l1.633,3.898c1.404,3.365,4.017,6.054,7.305,7.504
			l4.279,1.895c1.404,0.617,1.404,2.652,0,3.273l-4.415,1.951C23.07,21.025,20.498,23.613,19.067,26.871z"/>
		
			<radialGradient id="SVGID_2_" cx="1158.6396" cy="-1185.7656" r="1.002" gradientTransform="matrix(4.7899 24.2081 -24.3327 4.7654 -34377.8203 -22380.3594)" gradientUnits="userSpaceOnUse">
			<stop  offset="0" style="stop-color:#1BA1E3"/>
			<stop  offset="0.3002" style="stop-color:#5489D6"/>
			<stop  offset="0.5455" style="stop-color:#9B72CB"/>
			<stop  offset="0.8254" style="stop-color:#D96570"/>
			<stop  offset="1" style="stop-color:#F49C46"/>
		</radialGradient>
		<path fill="url(#SVGID_2_)" d="M33.985,38.402l-0.452,1.033c-0.331,0.752-1.384,0.752-1.708,0l-0.452-1.033
			c-0.803-1.826-2.255-3.291-4.063-4.098l-1.391-0.611c-0.749-0.328-0.749-1.416,0-1.752l1.316-0.578
			c1.85-0.818,3.328-2.336,4.117-4.23l0.459-1.115c0.324-0.779,1.404-0.779,1.729,0l0.459,1.115c0.797,1.895,2.269,3.412,4.124,4.23
			l1.316,0.578c0.75,0.336,0.75,1.424,0,1.752l-1.391,0.611C36.24,35.111,34.789,36.576,33.985,38.402z"/>
	</g>
</g>
<g id="Layer_3_copy" display="none">
	<g display="inline">
		<path fill="#666666" d="M19.07,26.871l-1.6,3.66c-0.614,1.404-2.572,1.404-3.193,0l-1.606-3.66
			c-1.424-3.258-3.996-5.846-7.196-7.263l-4.421-1.951c-1.404-0.621-1.404-2.656,0-3.273l4.279-1.895
			c3.288-1.45,5.907-4.14,7.311-7.504l1.62-3.898c0.607-1.447,2.619-1.447,3.214,0l1.633,3.898c1.404,3.365,4.017,6.054,7.304,7.504
			l4.279,1.895c1.404,0.617,1.404,2.652,0,3.273l-4.414,1.951C23.072,21.025,20.5,23.613,19.07,26.871z"/>
		<path fill="#666666" d="M33.988,38.402l-0.453,1.033c-0.33,0.752-1.383,0.752-1.707,0l-0.453-1.033
			c-0.803-1.826-2.254-3.291-4.063-4.098l-1.391-0.611c-0.75-0.328-0.75-1.416,0-1.752l1.316-0.578
			c1.85-0.818,3.328-2.336,4.117-4.23l0.459-1.115c0.324-0.779,1.404-0.779,1.729,0l0.459,1.115c0.797,1.895,2.268,3.412,4.123,4.23
			l1.316,0.578c0.75,0.336,0.75,1.424,0,1.752l-1.391,0.611C36.242,35.111,34.791,36.576,33.988,38.402z"/>
	</g>
</g>
<g id="Layer_5" display="none">
	<path display="inline" fill="#666666" d="M13.133,31.502c-1.171-0.481-2.475-0.276-3.482,0.571C9.01,32.609,7.91,33.395,6.574,34.1
		c0.438-1.312,0.773-2.794,0.882-4.409c0.078-1.151-0.258-2.294-0.921-3.169c-1.819-2.348-2.787-5.098-2.787-7.954
		c0-7.097,6.504-14.283,16.24-14.283s16.24,7.186,16.24,14.283c0,7.096-6.504,14.283-16.24,14.283
		C17.521,32.851,15.202,32.359,13.133,31.502z M2.054,34.975c-0.125,0.241-0.258,0.482-0.398,0.724l-0.023,0.044
		c-0.125,0.206-0.25,0.411-0.375,0.616c-0.273,0.42-0.57,0.83-0.882,1.205c-0.359,0.411-0.461,1.018-0.266,1.554
		C0.305,39.652,0.757,40,1.265,40c0.398,0,0.797-0.026,1.195-0.071l0.055-0.009c0.344-0.044,0.687-0.098,1.031-0.169
		c0.063-0.01,0.125-0.027,0.188-0.045c1.39-0.313,2.725-0.849,3.912-1.438c1.788-0.893,3.311-1.955,4.24-2.731
		c2.482,1.026,5.231,1.598,8.128,1.598C31.052,37.135,40,28.824,40,18.568C40,8.311,31.028,0,19.988,0C8.948,0,0,8.311,0,18.568
		c0,4.026,1.382,7.749,3.725,10.792C3.576,31.547,2.834,33.493,2.054,34.975z M11.244,21.424c1.38,0,2.499-1.278,2.499-2.856
		s-1.119-2.856-2.499-2.856c-1.38,0-2.499,1.279-2.499,2.856S9.863,21.424,11.244,21.424z M22.487,18.568
		c0-1.578-1.119-2.856-2.499-2.856s-2.498,1.279-2.498,2.856s1.118,2.856,2.498,2.856S22.487,20.146,22.487,18.568z M28.733,21.424
		c1.38,0,2.498-1.278,2.498-2.856s-1.118-2.856-2.498-2.856s-2.499,1.279-2.499,2.856S27.354,21.424,28.733,21.424z"/>
</g>
<g id="Layer_6">
	<path fill="#FFFFFF" d="M15.624,22.496H6.873c-1.672,0-2.508,2.016-1.329,3.203l2.571,2.422l-7.751,7.758
		c-0.484,0.484-0.484,1.281,0,1.766l1.985,1.984c0.484,0.484,1.281,0.484,1.766,0l7.759-7.758l2.43,2.578
		c1.18,1.18,3.196,0.344,3.196-1.328v-8.75C17.5,23.332,16.664,22.496,15.624,22.496z M24.376,17.497h8.752
		c1.672,0,2.508-2.023,1.328-3.203l-2.579-2.422l7.76-7.758c0.484-0.484,0.484-1.281,0-1.766l-1.984-1.984
		c-0.485-0.484-1.282-0.484-1.767,0l-7.759,7.758l-2.431-2.578C24.517,4.364,22.5,5.2,22.5,6.872v8.75
		C22.5,16.661,23.337,17.497,24.376,17.497z M31.877,28.121l2.579-2.43c1.18-1.18,0.344-3.195-1.328-3.195h-8.752
		c-1.039,0-1.876,0.836-1.876,1.875v8.75c0,1.672,2.024,2.508,3.204,1.328l2.423-2.57l7.759,7.758c0.484,0.484,1.281,0.484,1.767,0
		l1.984-1.984c0.484-0.484,0.484-1.281,0-1.766L31.877,28.121z M14.296,5.551l-2.422,2.57L4.114,0.364
		c-0.485-0.484-1.282-0.484-1.766,0L0.363,2.348c-0.484,0.484-0.484,1.281,0,1.766l7.759,7.758l-2.579,2.43
		c-1.18,1.18-0.344,3.195,1.329,3.195h8.751c1.04,0,1.875-0.836,1.875-1.875v-8.75C17.5,5.208,15.476,4.372,14.296,5.551z"/>
</g>
<g id="Layer_7" display="none">
	<path display="inline" fill="#FFFFFF" d="M40,27.857v10c0.005,1.179-0.946,2.138-2.125,2.143c-0.005,0-0.014,0-0.018,0h-10
		c-1.911,0-2.866-2.313-1.519-3.661l3.232-3.231L20,23.536l-9.571,9.58l3.232,3.223C15.009,37.688,14.054,40,12.143,40h-10
		C0.964,40.005,0.005,39.054,0,37.875c0-0.005,0-0.014,0-0.018v-10c0-1.911,2.313-2.866,3.661-1.519l3.231,3.232L16.474,20
		l-9.581-9.58l-3.231,3.241C2.313,15.009,0,14.054,0,12.143v-10C-0.005,0.964,0.946,0.004,2.125,0C2.13,0,2.139,0,2.143,0h10
		c1.911,0,2.866,2.313,1.519,3.661l-3.232,3.231L20,16.464l9.571-9.58l-3.232-3.223C24.991,2.313,25.946,0,27.857,0h10
		C39.036-0.004,39.995,0.946,40,2.125c0,0.006,0,0.013,0,0.018v10c0,1.911-2.313,2.866-3.661,1.519l-3.231-3.232L23.526,20
		l9.581,9.58l3.231-3.231C37.688,24.991,40,25.946,40,27.857z"/>
</g>
<g id="Layer_8" display="none">
	<path display="inline" fill="#FFFFFF" d="M38.816,6.831c1.562-1.562,1.562-4.098,0-5.66c-1.562-1.562-4.099-1.562-5.66,0L20,14.34
		L6.831,1.184c-1.562-1.562-4.098-1.562-5.66,0c-1.562,1.562-1.562,4.099,0,5.66L14.34,20L1.184,33.169
		c-1.562,1.562-1.562,4.098,0,5.66c1.562,1.562,4.099,1.562,5.66,0L20,25.66l13.169,13.156c1.562,1.562,4.098,1.562,5.66,0
		c1.562-1.562,1.562-4.099,0-5.66L25.66,20L38.816,6.831z"/>
</g>
</svg>
